<svg xmlns="http://www.w3.org/2000/svg" version="1.1" xmlns:xlink="http://www.w3.org/1999/xlink" xmlns:svgjs="http://svgjs.dev/svgjs" width="100" height="100" viewBox="0 0 1000 1000"><rect width="1000" height="1000" fill="#8b3c7f"></rect><g transform="matrix(0.7,0,0,0.7,149.57575757575756,282.1265587044535)"><svg viewBox="0 0 396 247" data-background-color="#8b3c7f" preserveAspectRatio="xMidYMid meet" height="623" width="1000" xmlns="http://www.w3.org/2000/svg" xmlns:xlink="http://www.w3.org/1999/xlink"><g id="tight-bounds" transform="matrix(1,0,0,1,0.2400000000000091,-0.09999999999999432)"><svg viewBox="0 0 395.52 247.2" height="247.2" width="395.52"><g><svg></svg></g><g><svg viewBox="0 0 395.52 247.2" height="247.2" width="395.52"><g transform="matrix(1,0,0,1,75.54432000000001,54.579463108552375)"><svg viewBox="0 0 244.43135999999996 138.04107378289524" height="138.04107378289524" width="244.43135999999996"><g><svg viewBox="0 0 244.43135999999996 138.04107378289524" height="138.04107378289524" width="244.43135999999996"><g><svg viewBox="0 0 244.43136 138.04107378289527" height="138.04107378289524" width="244.43135999999996"><g><svg viewBox="0 0 244.43136 138.04107378289527" height="138.04107378289527" width="244.43136"><g id="textblocktransform"><svg viewBox="0 0 244.43136 138.04107378289527" height="138.04107378289527" width="244.43136" id="textblock"><g><svg viewBox="0 0 244.43136 74.45275910097281" height="74.45275910097281" width="244.43136"><g transform="matrix(1,0,0,1,0,0)"><svg width="244.43136" viewBox="3.75 -35.900001525878906 149.0399932861328 45.400001525878906" height="74.45275910097281" data-palette-color="#ffffff"><path d="M16.55 0.5L16.55 0.5Q13.55 0.5 11.55-0.58 9.55-1.65 8.35-3.25L8.35-3.25 8.35-1.15Q8.35-0.65 8.03-0.33 7.7 0 7.2 0L7.2 0 4.9 0Q4.4 0 4.08-0.33 3.75-0.65 3.75-1.15L3.75-1.15 3.75-34.35Q3.75-34.85 4.08-35.18 4.4-35.5 4.9-35.5L4.9-35.5 7.35-35.5Q7.85-35.5 8.15-35.18 8.45-34.85 8.45-34.35L8.45-34.35 8.45-22.85Q9.7-24.4 11.68-25.45 13.65-26.5 16.55-26.5L16.55-26.5Q19.35-26.5 21.33-25.53 23.3-24.55 24.58-22.85 25.85-21.15 26.5-19 27.15-16.85 27.25-14.5L27.25-14.5Q27.3-13.7 27.3-13 27.3-12.3 27.25-11.5L27.25-11.5Q27.15-9.1 26.5-6.95 25.85-4.8 24.58-3.13 23.3-1.45 21.33-0.48 19.35 0.5 16.55 0.5ZM15.5-3.55L15.5-3.55Q18.1-3.55 19.58-4.67 21.05-5.8 21.7-7.63 22.35-9.45 22.45-11.55L22.45-11.55Q22.5-13 22.45-14.45L22.45-14.45Q22.35-16.55 21.7-18.38 21.05-20.2 19.58-21.33 18.1-22.45 15.5-22.45L15.5-22.45Q13.15-22.45 11.6-21.35 10.05-20.25 9.28-18.55 8.5-16.85 8.45-15.1L8.45-15.1Q8.4-14.3 8.4-13.18 8.4-12.05 8.45-11.25L8.45-11.25Q8.55-9.4 9.28-7.63 10-5.85 11.53-4.7 13.05-3.55 15.5-3.55ZM37 0L34.6 0Q34.1 0 33.77-0.33 33.45-0.65 33.45-1.15L33.45-1.15 33.45-24.85Q33.45-25.35 33.77-25.68 34.1-26 34.6-26L34.6-26 37-26Q37.5-26 37.82-25.68 38.15-25.35 38.15-24.85L38.15-24.85 38.15-1.15Q38.15-0.65 37.82-0.33 37.5 0 37 0L37 0ZM37.35-30.85L34.2-30.85Q33.7-30.85 33.37-31.18 33.05-31.5 33.05-32L33.05-32 33.05-34.7Q33.05-35.2 33.37-35.55 33.7-35.9 34.2-35.9L34.2-35.9 37.35-35.9Q37.85-35.9 38.2-35.55 38.55-35.2 38.55-34.7L38.55-34.7 38.55-32Q38.55-31.5 38.2-31.18 37.85-30.85 37.35-30.85L37.35-30.85ZM54.55 0.5L54.55 0.5Q51.74 0.5 49.74-0.2 47.74-0.9 46.49-1.9 45.24-2.9 44.62-3.9 43.99-4.9 43.95-5.5L43.95-5.5Q43.89-6.05 44.3-6.35 44.7-6.65 45.09-6.65L45.09-6.65 47.34-6.65Q47.59-6.65 47.77-6.58 47.95-6.5 48.24-6.15L48.24-6.15Q48.89-5.45 49.7-4.75 50.49-4.05 51.67-3.6 52.84-3.15 54.59-3.15L54.59-3.15Q57.14-3.15 58.8-4.13 60.45-5.1 60.45-7L60.45-7Q60.45-8.25 59.77-9 59.09-9.75 57.37-10.35 55.64-10.95 52.64-11.6L52.64-11.6Q49.64-12.3 47.89-13.33 46.14-14.35 45.39-15.78 44.64-17.2 44.64-19L44.64-19Q44.64-20.85 45.74-22.58 46.84-24.3 48.97-25.4 51.09-26.5 54.3-26.5L54.3-26.5Q56.89-26.5 58.75-25.85 60.59-25.2 61.8-24.23 63-23.25 63.59-22.3 64.19-21.35 64.25-20.7L64.25-20.7Q64.3-20.2 63.95-19.88 63.59-19.55 63.14-19.55L63.14-19.55 61.05-19.55Q60.7-19.55 60.47-19.7 60.25-19.85 60.05-20.05L60.05-20.05Q59.55-20.7 58.87-21.35 58.2-22 57.12-22.43 56.05-22.85 54.3-22.85L54.3-22.85Q51.8-22.85 50.55-21.8 49.3-20.75 49.3-19.15L49.3-19.15Q49.3-18.2 49.84-17.45 50.39-16.7 51.95-16.1 53.49-15.5 56.55-14.8L56.55-14.8Q59.84-14.15 61.75-13.05 63.64-11.95 64.44-10.5 65.25-9.05 65.25-7.15L65.25-7.15Q65.25-5.05 64.05-3.3 62.84-1.55 60.45-0.53 58.05 0.5 54.55 0.5ZM74.74 0L72.24 0Q71.74 0 71.42-0.33 71.09-0.65 71.09-1.15L71.09-1.15 71.09-34.35Q71.09-34.85 71.42-35.18 71.74-35.5 72.24-35.5L72.24-35.5 74.74-35.5Q75.29-35.5 75.59-35.18 75.89-34.85 75.89-34.35L75.89-34.35 75.89-22.7Q77.24-24.4 79.19-25.45 81.14-26.5 84.14-26.5L84.14-26.5Q87.39-26.5 89.67-25.08 91.94-23.65 93.12-21.13 94.29-18.6 94.29-15.25L94.29-15.25 94.29-1.15Q94.29-0.65 93.99-0.33 93.69 0 93.14 0L93.14 0 90.64 0Q90.14 0 89.82-0.33 89.49-0.65 89.49-1.15L89.49-1.15 89.49-15Q89.49-18.5 87.79-20.48 86.09-22.45 82.79-22.45L82.79-22.45Q79.69-22.45 77.79-20.48 75.89-18.5 75.89-15L75.89-15 75.89-1.15Q75.89-0.65 75.59-0.33 75.29 0 74.74 0L74.74 0ZM112.14 0.5L112.14 0.5Q108.34 0.5 105.79-0.95 103.24-2.4 101.89-4.98 100.54-7.55 100.39-10.85L100.39-10.85Q100.34-11.7 100.34-13.03 100.34-14.35 100.39-15.15L100.39-15.15Q100.54-18.5 101.92-21.05 103.29-23.6 105.84-25.05 108.39-26.5 112.14-26.5L112.14-26.5Q115.89-26.5 118.44-25.05 120.99-23.6 122.37-21.05 123.74-18.5 123.89-15.15L123.89-15.15Q123.94-14.35 123.94-13.03 123.94-11.7 123.89-10.85L123.89-10.85Q123.74-7.55 122.39-4.98 121.04-2.4 118.49-0.95 115.94 0.5 112.14 0.5ZM112.14-3.35L112.14-3.35Q115.24-3.35 117.09-5.33 118.94-7.3 119.09-11.1L119.09-11.1Q119.14-11.85 119.14-13 119.14-14.15 119.09-14.9L119.09-14.9Q118.94-18.7 117.09-20.68 115.24-22.65 112.14-22.65L112.14-22.65Q109.04-22.65 107.17-20.68 105.29-18.7 105.19-14.9L105.19-14.9Q105.14-14.15 105.14-13 105.14-11.85 105.19-11.1L105.19-11.1Q105.29-7.3 107.17-5.33 109.04-3.35 112.14-3.35ZM137.09 9.5L134.74 9.5Q134.34 9.5 134.04 9.2 133.74 8.9 133.74 8.5L133.74 8.5Q133.74 8.3 133.79 8.1 133.84 7.9 133.99 7.6L133.99 7.6 137.84-1.55 128.29-24.1Q128.04-24.7 128.04-24.95L128.04-24.95Q128.04-25.4 128.34-25.7 128.64-26 129.09-26L129.09-26 131.54-26Q132.09-26 132.34-25.75 132.59-25.5 132.74-25.15L132.74-25.15 140.34-6.95 148.14-25.15Q148.29-25.5 148.56-25.75 148.84-26 149.39-26L149.39-26 151.74-26Q152.19-26 152.49-25.7 152.79-25.4 152.79-25L152.79-25Q152.79-24.75 152.54-24.1L152.54-24.1 138.34 8.65Q138.19 9 137.91 9.25 137.64 9.5 137.09 9.5L137.09 9.5Z" opacity="1" transform="matrix(1,0,0,1,0,0)" fill="#ffffff" class="wordmark-text-0" data-fill-palette-color="primary" id="text-0"></path></svg></g></svg></g><g transform="matrix(1,0,0,1,0,92.02926865849408)"><svg viewBox="0 0 244.43136 46.0118051244012" height="46.0118051244012" width="244.43136"><g transform="matrix(1,0,0,1,0,0)"><svg width="244.43136" viewBox="0.30000001192092896 -37.5 265.6200256347656 50" height="46.0118051244012" data-palette-color="#ffffff"><path d="M16-19.15L11.9 0 4.7 0 11.5-31.8 18.9-32.8 16.55-21.7 16.85-21.7Q19.65-21.7 21.85-24.25 24.05-26.8 24.05-29.8L24.05-29.8Q24.05-32.3 22.33-33.75 20.6-35.2 17.45-35.2L17.45-35.2Q12.2-35.2 8.58-31.85 4.95-28.5 4.95-23.05L4.95-23.05Q4.95-22.1 5.08-21.4 5.2-20.7 5.5-20.05L5.5-20.05Q5.6-19.85 5.63-19.78 5.65-19.7 5.65-19.65L5.65-19.65Q2.95-19.65 1.63-20.8 0.3-21.95 0.3-24.25L0.3-24.25Q0.3-26.95 2.02-29.55 3.75-32.15 6.8-34.1L6.8-34.1Q9.3-35.75 12.33-36.63 15.35-37.5 18.45-37.5L18.45-37.5Q23.35-37.5 26.23-35.3 29.1-33.1 29.1-29.55L29.1-29.55Q29.1-27.2 27.75-25.05 26.4-22.9 24.1-21.6L24.1-21.6Q26.95-21.05 28.48-18.93 30-16.8 30-13.55L30-13.55Q30-11.2 29.3-8.6 28.6-6 27.35-4L27.35-4Q25.85-1.6 23.75-0.38 21.65 0.85 19.05 0.85L19.05 0.85Q16.7 0.85 15.4-0.1 14.1-1.05 14.1-2.85L14.1-2.85Q14.1-3.45 14.25-4.17 14.4-4.9 14.75-5.75L14.75-5.75Q15.7-4.8 16.48-4.38 17.25-3.95 18.1-3.95L18.1-3.95Q20.35-3.95 21.7-6.55 23.05-9.15 23.05-12.95L23.05-12.95Q23.05-16.1 21.85-17.7 20.65-19.3 18.3-19.3L18.3-19.3Q17.95-19.3 17.28-19.25 16.6-19.2 16-19.15L16-19.15ZM63.11-34L63.11-34Q65.66-35.65 68.59-36.58 71.51-37.5 74.31-37.5L74.31-37.5Q74.66-37.5 75.09-37.48 75.51-37.45 76.31-37.4L76.31-37.4 68.36 0 61.16 0 68.41-33.95Q65.01-32.55 63.21-29.75 61.41-26.95 61.41-23.05L61.41-23.05Q61.41-22.1 61.54-21.4 61.66-20.7 61.96-20.05L61.96-20.05Q62.06-19.85 62.09-19.78 62.11-19.7 62.11-19.65L62.11-19.65Q59.31-19.65 58.04-20.83 56.76-22 56.76-24.5L56.76-24.5Q56.76-27 58.44-29.5 60.11-32 63.11-34ZM115.63-8.35L115.63-8.35Q115.63-7.75 115.58-7.3 115.53-6.85 115.43-6.45L115.43-6.45Q116.43-7.05 117.38-7.7 118.33-8.35 119.03-8.95L119.03-8.95 121.13-8.95Q119.58-7.15 117.7-5.63 115.83-4.1 113.48-2.7L113.48-2.7Q112.13-1.25 110.03-0.48 107.93 0.3 105.63 0.3L105.63 0.3Q102.28 0.3 100.3-1.53 98.33-3.35 98.33-6.1L98.33-6.1Q98.33-7.65 99.08-8.93 99.83-10.2 100.98-10.75L100.98-10.75Q102.68-13.8 104.15-17.28 105.63-20.75 107.13-25.55L107.13-25.55 114.53-26.55Q114.68-22.8 114.88-19.7 115.08-16.6 115.38-12.95L115.38-12.95Q115.53-10.85 115.58-10 115.63-9.15 115.63-8.35ZM107.43-20.15L107.43-20.15Q106.78-18.1 105.85-15.88 104.93-13.65 103.38-10.7L103.38-10.7Q103.93-10.45 104.23-10 104.53-9.55 104.53-8.95L104.53-8.95Q104.53-8 103.88-7.25 103.23-6.5 102.33-6.5L102.33-6.5Q101.83-6.5 101.48-6.68 101.13-6.85 100.98-7.15L100.98-7.15Q100.98-5.3 101.7-4.48 102.43-3.65 104.03-3.65L104.03-3.65Q106.08-3.65 107.23-4.85 108.38-6.05 108.38-8.3L108.38-8.3Q108.38-9 108.33-9.73 108.28-10.45 108.13-12.15L108.13-12.15Q107.88-14.5 107.73-16.3 107.58-18.1 107.43-20.15ZM156.34-5.35L156.34-5.35Q156.34-6.25 156.57-7.6 156.79-8.95 157.49-11.9L157.49-11.9Q158.19-14.75 158.39-16 158.59-17.25 158.59-18.1L158.59-18.1Q158.59-19.35 158.12-20 157.64-20.65 156.74-20.65L156.74-20.65Q155.54-20.65 154.42-19.23 153.29-17.8 152.94-16.25L152.94-16.25 149.49 0 142.29 0 149.54-34 156.94-35 154.24-22.4Q155.49-23.8 156.94-24.5 158.39-25.2 160.09-25.2L160.09-25.2Q162.74-25.2 164.19-23.75 165.64-22.3 165.64-19.55L165.64-19.55Q165.64-18.4 165.37-16.82 165.09-15.25 164.29-12L164.29-12Q163.64-9.45 163.44-8.4 163.24-7.35 163.24-6.65L163.24-6.65Q163.24-5.6 163.74-5.08 164.24-4.55 165.24-4.55L165.24-4.55Q166.49-4.55 167.39-5.4 168.29-6.25 169.44-8.95L169.44-8.95 171.54-8.95Q169.94-4.3 167.67-2 165.39 0.3 162.24 0.3L162.24 0.3Q159.44 0.3 157.89-1.23 156.34-2.75 156.34-5.35ZM192.15-7.7L192.15-7.7Q192.15-10.55 193.08-13.75 194-16.95 195.6-19.45L195.6-19.45Q197.45-22.4 200.05-23.93 202.65-25.45 205.85-25.45L205.85-25.45Q209.05-25.45 210.65-23.45 212.25-21.45 212.25-17.45L212.25-17.45Q212.35-17.4 212.48-17.38 212.6-17.35 212.8-17.35L212.8-17.35Q214.35-17.35 216.5-18.2 218.65-19.05 220.5-20.35L220.5-20.35 220.95-19Q219.55-17.5 217.23-16.4 214.9-15.3 212.1-14.85L212.1-14.85Q211.5-8.1 208.2-3.95 204.9 0.2 200.15 0.2L200.15 0.2Q196.25 0.2 194.2-1.8 192.15-3.8 192.15-7.7ZM206.25-22.4L206.25-22.4Q203.85-22.4 201.73-17.55 199.6-12.7 199.6-8.35L199.6-8.35Q199.6-6 200.13-5.15 200.65-4.3 202.15-4.3L202.15-4.3Q204-4.3 205.68-7.3 207.35-10.3 207.95-14.7L207.95-14.7Q207.25-14.85 206.93-15.38 206.6-15.9 206.6-16.8L206.6-16.8Q206.6-17.75 207-18.45 207.4-19.15 208.15-19.5L208.15-19.5Q208.05-21.1 207.63-21.75 207.2-22.4 206.25-22.4ZM247.87-4.55L247.87-4.55Q249.12-4.55 250.12-5.6 251.12-6.65 251.77-8.65L251.77-8.65 255.27-25 262.47-25 257.52-1.8Q260.02-2.7 261.44-4.33 262.87-5.95 263.82-8.95L263.82-8.95 265.92-8.95Q264.77-5.15 262.64-2.85 260.52-0.55 257.07 0.4L257.07 0.4 256.32 4Q255.42 8.2 253.17 10.35 250.92 12.5 247.32 12.5L247.32 12.5Q244.77 12.5 243.24 11.2 241.72 9.9 241.72 7.65L241.72 7.65Q241.72 5.2 243.74 3.33 245.77 1.45 249.87 0.2L249.87 0.2 250.47-2.5Q249.22-1.1 247.74-0.4 246.27 0.3 244.47 0.3L244.47 0.3Q241.97 0.3 240.54-1.28 239.12-2.85 239.12-5.7L239.12-5.7Q239.12-6.35 239.22-7.18 239.32-8 239.52-8.95L239.52-8.95 242.92-25 250.12-25 246.52-8Q246.47-7.7 246.42-7.38 246.37-7.05 246.37-6.75L246.37-6.75Q246.37-5.7 246.74-5.13 247.12-4.55 247.87-4.55ZM249.07 4.15L249.37 2.7Q246.87 3.65 245.67 4.67 244.47 5.7 244.47 6.95L244.47 6.95Q244.47 7.6 244.97 8.1 245.47 8.6 246.17 8.6L246.17 8.6Q247.02 8.6 247.82 7.4 248.62 6.2 249.07 4.15L249.07 4.15Z" opacity="1" transform="matrix(1,0,0,1,0,0)" fill="#ffffff" class="slogan-text-1" data-fill-palette-color="secondary" id="text-1"></path></svg></g></svg></g></svg></g></svg></g><g></g></svg></g></svg></g></svg></g><g><path d="M111.518 37.003A122.216 122.216 0 0 1 284.002 37.003L277.287 37.003A115.501 115.501 0 0 0 118.233 37.003L111.518 37.003M111.518 210.197A122.216 122.216 0 0 0 284.002 210.197L277.287 210.197A115.501 115.501 0 0 1 118.233 210.197L111.518 210.197" fill="#ffffff" stroke="transparent" data-fill-palette-color="tertiary"></path></g></svg></g><defs></defs></svg><rect width="395.52" height="247.2" fill="none" stroke="none" visibility="hidden"></rect></g></svg></g></svg>